<?xml version="1.0" encoding="UTF-8"?>
<!-- Generator: Adobe Illustrator 20.1.0, SVG Export Plug-In . SVG Version: 6.00 Build 0)  -->
<svg version="1.1" id="Layer_1" xmlns="http://www.w3.org/2000/svg" xmlns:xlink="http://www.w3.org/1999/xlink" x="0px" y="0px" viewBox="0 0 217.8 25.8" style="enable-background:new 0 0 217.8 25.8;" xml:space="preserve">
<style type="text/css">
	.st0{fill:#F6911E;}
	.st1{fill:#768C98;}
</style>
<path class="st0" d="M4.3,17.8l6.2-17C3.8,2.4-0.3,9.1,1.3,15.7S9.6,26.5,16.2,25c3.6-0.8,6.6-3.2,8.3-6.5  C17.2,21.3,8.8,21.3,4.3,17.8"/>
<path class="st0" d="M19.7,14.5c2,0.2,4.1,0,6-0.8c0-0.3,0.1-0.6,0-0.9c0-2.6-0.8-5.1-2.3-7.3L19.7,14.5z"/>
<path class="st0" d="M15.4,15.6l5.4-12.7c-0.5-0.4-1-0.7-1.5-0.9l-5.8,14.4c2.6,1.1,7.6,0.3,12.1-1.1c0.1-0.2,0.1-0.5,0.1-0.8  C22.5,15.5,17.8,16.3,15.4,15.6"/>
<path class="st0" d="M9.9,16.7l6.2-16c-0.6-0.1-1.1-0.2-1.7-0.3l-6.6,17c3.7,2.5,10.5,2,17.2,0c0.1-0.3,0.3-0.6,0.3-1  C21.4,18,12.2,18.8,9.9,16.7"/>
<g>
	<path class="st1" d="M115.6,13.6h2.6V6c0-0.4-0.1-0.7-0.2-1.1c-0.1-0.3-0.3-0.7-0.5-0.9c-0.2-0.3-0.5-0.5-0.8-0.7s-0.7-0.2-1.1-0.2   c-0.6,0-1.2,0.2-1.6,0.5c-0.5,0.4-0.8,0.9-1,1.4l-2.6,6.2L108,5.3c-0.1-0.3-0.3-0.6-0.5-0.9s-0.4-0.5-0.6-0.7s-0.5-0.4-0.8-0.5   c-0.6-0.2-1.3-0.2-2,0c-0.3,0.1-0.6,0.3-0.8,0.6c-0.5,0.5-0.8,1.2-0.8,1.9v7.9h2.6V6l2.5,5.4c0.1,0.3,0.3,0.6,0.5,0.9   c0.2,0.3,0.4,0.6,0.6,0.8s0.5,0.4,0.8,0.6c0.3,0.1,0.6,0.2,0.9,0.2s0.7,0,1-0.2c0.3-0.1,0.5-0.3,0.7-0.5s0.4-0.5,0.5-0.8   c0.2-0.3,0.3-0.7,0.5-1.1l2.5-5.6V13.6z"/>
	<path class="st1" d="M134.5,13.7v-2.8h-12.2V9.7h12.2V7h-12.2V5.8h12.2V3h-11.1c-0.5,0-1,0.1-1.5,0.2c-0.4,0.1-0.8,0.4-1.2,0.7   c-0.3,0.3-0.6,0.7-0.8,1.1c-0.2,0.5-0.3,0.9-0.3,1.4v3.8c0,0.5,0.1,1,0.3,1.4c0.2,0.4,0.5,0.8,0.8,1.1c0.4,0.3,0.8,0.5,1.2,0.7   c0.4,0.2,0.9,0.3,1.4,0.3H134.5z"/>
	<path class="st1" d="M101.1,13.7v-2.8H88.9V9.7h12.2V7H88.9V5.8h12.2V3H90c-0.5,0-1,0.1-1.5,0.2c-0.4,0.1-0.8,0.4-1.2,0.7   C87,4.2,86.7,4.6,86.5,5c-0.2,0.5-0.3,0.9-0.3,1.4v3.8c0,0.5,0.1,1,0.3,1.4c0.2,0.4,0.5,0.8,0.8,1.1c0.4,0.3,0.8,0.5,1.2,0.7   c0.4,0.2,0.9,0.3,1.4,0.3H101.1z"/>
	<path class="st1" d="M55.3,13.4c0.4,0.2,0.9,0.3,1.4,0.3h11.1v-2.8H55.7V9.7h12.2V7H55.7V5.8h12.2V3H56.7c-0.5,0-1,0.1-1.5,0.2   c-0.4,0.1-0.8,0.4-1.2,0.7c-0.3,0.3-0.5,0.7-0.7,1.1C53.1,5.5,53,5.9,53,6.4v3.8c0,0.5,0.1,1,0.3,1.4s0.5,0.8,0.8,1.1   C54.5,13,54.9,13.3,55.3,13.4"/>
	<polygon class="st1" points="51.6,3.1 48.7,3.1 48.7,11 45.5,11 45.5,3.1 42.6,3.1 42.6,11 39.4,11 39.4,3.1 36.6,3.1 36.6,13.7    51.6,13.7  "/>
	<path class="st1" d="M72.1,5.8h9.8v1.3h-9.8V5.8z M72.1,9.7h9.2c0.5,0,0.9-0.1,1.3-0.3c0.8-0.3,1.5-1,1.9-1.8   c0.2-0.4,0.3-0.9,0.3-1.3c0-0.5-0.1-0.9-0.3-1.3c-0.2-0.4-0.5-0.8-0.8-1c-0.4-0.3-0.8-0.5-1.2-0.7c-0.5-0.2-0.9-0.2-1.4-0.2H69.3   v10.6h2.8C72.1,13.7,72.1,9.7,72.1,9.7z"/>
	<path class="st1" d="M171.6,3.3c-0.4,0.1-0.8,0.4-1.2,0.7c-0.3,0.3-0.6,0.7-0.8,1.1c-0.2,0.5-0.3,0.9-0.3,1.4v3.8   c0,0.5,0.1,1,0.3,1.4s0.5,0.8,0.8,1.1c0.4,0.3,0.8,0.5,1.2,0.7s0.9,0.3,1.4,0.3h11.1V11h-12.2V9.7h12.2V7h-12.2V5.8h12.2V3H173   C172.6,3,172.1,3.1,171.6,3.3"/>
	<path class="st1" d="M165.1,11h-9.8V9.7h9.8V11z M166.8,8c-0.3-0.3-0.7-0.6-1.1-0.7c-0.4-0.2-0.9-0.3-1.3-0.3h-9.2V3h-2.8v10.6   h11.7c0.5,0,0.9-0.1,1.4-0.2c0.4-0.2,0.9-0.4,1.2-0.7c0.4-0.3,0.6-0.6,0.9-1c0.2-0.4,0.3-0.9,0.3-1.3c0-0.5-0.1-0.9-0.3-1.3   C167.4,8.7,167.1,8.3,166.8,8"/>
	<polygon class="st1" points="135.9,5.8 142.1,5.8 142.1,13.6 144.8,13.6 144.8,5.8 151,5.8 151,3.1 135.9,3.1  "/>
	<path class="st1" d="M197.9,6.9h-9.5V5.8h9.5V6.9z M197.9,10.9h-9.5V9.7h9.5V10.9z M200.1,8.3c0.4-0.6,0.6-1.3,0.6-2   c0-0.5-0.1-1-0.3-1.4s-0.5-0.7-0.8-1c-0.4-0.3-0.8-0.5-1.2-0.6c-0.5-0.1-1-0.2-1.5-0.2h-11.3v10.6h11.8c0.5,0,0.9-0.1,1.3-0.3   c0.4-0.2,0.8-0.4,1.1-0.7s0.6-0.7,0.8-1.1c0.2-0.4,0.3-0.9,0.3-1.3c0-0.3-0.1-0.7-0.3-1C200.5,8.9,200.3,8.6,200.1,8.3"/>
	<path class="st1" d="M214.5,11h-9.4V5.8h9.4V11z M216.3,4.1c-0.3-0.3-0.7-0.6-1.1-0.7c-0.4-0.2-0.8-0.3-1.3-0.3h-7.8   c-0.5,0-0.9,0.1-1.4,0.2c-0.4,0.1-0.8,0.4-1.2,0.6c-0.3,0.3-0.6,0.6-0.9,1c-0.2,0.4-0.3,0.8-0.3,1.3v4c0,0.5,0.1,0.9,0.3,1.3   c0.2,0.4,0.4,0.8,0.7,1.1s0.7,0.5,1.1,0.7c0.4,0.2,0.9,0.3,1.3,0.3h8.2c0.4,0,0.9-0.1,1.3-0.3c0.4-0.2,0.8-0.4,1.1-0.7   s0.6-0.6,0.7-1c0.2-0.4,0.3-0.8,0.3-1.2V6.5c0-0.4-0.1-0.9-0.3-1.3C216.8,4.8,216.6,4.4,216.3,4.1"/>
</g>
<g>
	<path class="st1" d="M69.4,21.2h-4.8v-2.5h4.8V21.2z M70.7,19c0-0.2,0-0.4-0.1-0.6s-0.2-0.4-0.4-0.5c-0.2-0.1-0.4-0.3-0.6-0.3   c-0.2-0.1-0.4-0.1-0.7-0.1h-3.8c-0.2,0-0.4,0-0.7,0.1c-0.2,0.1-0.4,0.2-0.5,0.3c-0.2,0.1-0.3,0.3-0.4,0.5c-0.1,0.2-0.1,0.4-0.1,0.6   v2.2H63v1.4h8.3v-1.4h-0.6V19z"/>
	<path class="st1" d="M46.4,17.4c-0.2,0.1-0.4,0.2-0.6,0.3c-0.2,0.1-0.3,0.3-0.4,0.5c-0.1,0.2-0.2,0.5-0.1,0.7v1.9   c0,0.2,0,0.5,0.2,0.7c0.1,0.2,0.2,0.4,0.4,0.5c0.2,0.2,0.4,0.3,0.6,0.4c0.2,0.1,0.5,0.1,0.7,0.1h5.6v-1.4h-6.1v-0.6h6.1v-1.4h-6.1   v-0.6h6.1v-1.4h-5.6C46.9,17.3,46.6,17.3,46.4,17.4"/>
	<path class="st1" d="M182.4,21.3h-4.7v-2.6h4.7V21.3z M183.3,17.9c-0.2-0.2-0.3-0.3-0.5-0.4s-0.4-0.1-0.6-0.1h-3.9   c-0.2,0-0.5,0-0.7,0.1s-0.4,0.2-0.6,0.3c-0.2,0.1-0.3,0.3-0.4,0.5c-0.1,0.2-0.2,0.4-0.2,0.6v2c0,0.2,0,0.5,0.1,0.7s0.2,0.4,0.4,0.5   c0.2,0.2,0.3,0.3,0.5,0.4s0.4,0.1,0.7,0.1h4.1c0.2,0,0.4,0,0.6-0.1c0.2-0.1,0.4-0.2,0.5-0.3c0.2-0.1,0.3-0.3,0.4-0.5   c0.1-0.2,0.1-0.4,0.1-0.6v-2c0-0.2,0-0.4-0.1-0.6C183.6,18.2,183.4,18,183.3,17.9"/>
	<path class="st1" d="M62.3,17.3h-1.8l-1.4,1.6L59,19c-0.1,0.1-0.1,0.1-0.2,0.2s-0.1,0.1-0.2,0.2c0,0.1-0.1,0.1-0.1,0.2v-2.3H57v2.2   c0-0.1-0.1-0.1-0.1-0.2s-0.1-0.1-0.1-0.2s-0.1-0.1-0.1-0.2s-0.1-0.1-0.1-0.1l-1.4-1.6h-1.8l2.3,2.7l-2.3,2.6h1.7l1.5-1.6   c0.1-0.1,0.2-0.2,0.2-0.2c0.1-0.1,0.1-0.1,0.1-0.1l0.1-0.1l0.1-0.1v2.2h1.5v-2.3l0.1,0.1l0.1,0.1c0,0,0.1,0.1,0.1,0.2   c0.1,0.1,0.1,0.2,0.2,0.3l1.5,1.6h1.6L60,20L62.3,17.3z"/>
	<path class="st1" d="M174.2,19.4h-4.9v-0.7h4.9V19.4z M175,17.8c-0.2-0.1-0.4-0.3-0.6-0.3c-0.2-0.1-0.5-0.1-0.7-0.1h-5.9v5.3h1.4   v-2h4.6c0.2,0,0.5,0,0.7-0.1s0.4-0.2,0.6-0.4c0.2-0.2,0.3-0.3,0.4-0.5c0.1-0.2,0.1-0.4,0.1-0.7c0-0.2,0-0.5-0.2-0.7   C175.4,18.1,175.2,17.9,175,17.8"/>
	<path class="st1" d="M198.9,21.3h-4.7v-2.6h4.7V21.3z M199.8,17.9c-0.2-0.2-0.3-0.3-0.5-0.4s-0.4-0.1-0.6-0.1h-3.9   c-0.2,0-0.5,0-0.7,0.1s-0.4,0.2-0.6,0.3c-0.2,0.1-0.3,0.3-0.4,0.5c-0.1,0.2-0.2,0.4-0.2,0.6v2c0,0.2,0,0.5,0.1,0.7s0.2,0.4,0.4,0.5   c0.2,0.2,0.3,0.3,0.5,0.4s0.4,0.1,0.7,0.1h4.1c0.2,0,0.4,0,0.6-0.1c0.2-0.1,0.4-0.2,0.5-0.3c0.2-0.1,0.3-0.3,0.4-0.5   c0.1-0.2,0.1-0.4,0.1-0.6v-2c0-0.2,0-0.4-0.1-0.6C200.1,18.2,199.9,18,199.8,17.9"/>
	<polygon class="st1" points="184.5,22.7 185.9,22.7 185.9,18.7 190.7,18.7 190.7,22.7 192.1,22.7 192.1,17.3 184.5,17.3  "/>
	<path class="st1" d="M207.3,19.4h-4.9v-0.7h4.9V19.4z M208.2,17.8c-0.2-0.1-0.4-0.3-0.6-0.3c-0.2-0.1-0.5-0.1-0.7-0.1H201v5.3h1.4   v-2h4.6c0.2,0,0.5,0,0.7-0.1s0.4-0.2,0.6-0.4c0.2-0.2,0.3-0.3,0.4-0.5c0.1-0.2,0.1-0.4,0.1-0.7c0-0.2,0-0.5-0.2-0.7   C208.5,18.1,208.4,17.9,208.2,17.8"/>
	<path class="st1" d="M44.2,17.8c-0.1-0.1-0.3-0.2-0.4-0.3c-0.2-0.1-0.4-0.1-0.5-0.1c-0.3,0-0.6,0.1-0.8,0.3   c-0.2,0.2-0.4,0.4-0.5,0.7l-1.3,3.1l-1.2-3c-0.1-0.2-0.1-0.3-0.2-0.4c-0.1-0.1-0.2-0.3-0.3-0.4s-0.3-0.2-0.4-0.2   c-0.3-0.1-0.7-0.1-1,0c-0.5,0.2-0.8,0.7-0.8,1.2v4h1.3v-3.9l1.2,2.7c0.1,0.2,0.2,0.3,0.2,0.5c0.1,0.1,0.2,0.3,0.3,0.4   s0.2,0.2,0.4,0.3c0.1,0.1,0.3,0.1,0.5,0.1s0.3,0,0.5-0.1c0.1-0.1,0.2-0.1,0.3-0.2s0.2-0.2,0.3-0.4c0.1-0.2,0.2-0.3,0.3-0.5l1.3-2.8   v3.9h1.1v-3.8c0-0.2,0-0.4-0.1-0.6C44.4,18.1,44.3,17.9,44.2,17.8"/>
	<polygon class="st1" points="209.5,18.7 212.5,18.7 212.5,22.6 213.9,22.6 213.9,18.7 217,18.7 217,17.3 209.5,17.3  "/>
	<path class="st1" d="M102.9,19.4H98v-0.7h4.9V19.4z M103.7,17.8c-0.2-0.1-0.4-0.3-0.6-0.3c-0.2-0.1-0.5-0.1-0.7-0.1h-5.9v5.3h1.4   v-2h4.6c0.2,0,0.5,0,0.7-0.1c0.4-0.2,0.7-0.5,0.9-0.9c0.1-0.2,0.1-0.4,0.1-0.7c0-0.2-0.1-0.5-0.2-0.7   C104,18.1,103.9,17.9,103.7,17.8"/>
	<path class="st1" d="M111.1,21.3h-4.7v-2.6h4.7V21.3z M112,17.9c-0.2-0.2-0.3-0.3-0.5-0.4s-0.4-0.1-0.6-0.1H107   c-0.2,0-0.5,0-0.7,0.1s-0.4,0.2-0.6,0.3c-0.2,0.1-0.3,0.3-0.4,0.5s-0.2,0.4-0.2,0.6v2c0,0.2,0,0.5,0.1,0.7s0.2,0.4,0.4,0.5   c0.2,0.2,0.3,0.3,0.5,0.4s0.4,0.1,0.7,0.1h4.1c0.2,0,0.4,0,0.6-0.1s0.4-0.2,0.5-0.3c0.2-0.1,0.3-0.3,0.4-0.5s0.1-0.4,0.1-0.6v-2   c0-0.2,0-0.4-0.1-0.6C112.2,18.2,112.1,18,112,17.9"/>
	<path class="st1" d="M146.1,17.5c-0.1-0.1-0.3-0.2-0.4-0.2c-0.2-0.1-0.3-0.1-0.5-0.1c-0.4,0-0.8,0.2-1.1,0.5l-3.6,3.6v-4h-1.3v3.9   c0,0.2,0,0.4,0.1,0.6s0.1,0.3,0.3,0.5c0.1,0.1,0.3,0.2,0.4,0.3c0.2,0.1,0.4,0.1,0.6,0.1c0.2,0,0.4,0,0.6-0.1   c0.2-0.1,0.4-0.2,0.5-0.4l3.6-3.5v4h1.3v-4.1c0-0.2,0-0.4-0.1-0.6C146.3,17.8,146.2,17.6,146.1,17.5"/>
	<path class="st1" d="M119.6,21.2h-4.8v-2.5h4.8V21.2z M120.9,19c0-0.2,0-0.4-0.1-0.6s-0.2-0.4-0.4-0.5c-0.2-0.1-0.4-0.3-0.6-0.3   c-0.2-0.1-0.4-0.1-0.7-0.1h-3.8c-0.2,0-0.4,0-0.7,0.1c-0.2,0.1-0.4,0.2-0.5,0.3c-0.2,0.1-0.3,0.3-0.4,0.5s-0.1,0.4-0.1,0.6v2.2   h-0.4v1.4h8.3v-1.4h-0.6L120.9,19z"/>
	<rect x="137.1" y="17.3" class="st1" width="1.3" height="5.3"/>
	<path class="st1" d="M78.3,19.3h-5v-2H72V19c0,0.2,0,0.4,0.1,0.7c0.1,0.2,0.2,0.4,0.4,0.5c0.2,0.1,0.4,0.3,0.6,0.3   c0.2,0.1,0.4,0.1,0.7,0.1h4.6v0.6h-6v1.4h5.7c0.2,0,0.4,0,0.6-0.1s0.4-0.2,0.5-0.4c0.2-0.2,0.3-0.3,0.4-0.5s0.1-0.4,0.1-0.7v-3.6   h-1.4L78.3,19.3L78.3,19.3z"/>
	<polygon class="st1" points="128.4,19.3 123.5,19.3 123.5,17.3 122.1,17.3 122.1,22.6 123.5,22.6 123.5,20.6 128.4,20.6    128.4,22.6 129.7,22.6 129.7,17.3 128.4,17.3  "/>
	<polygon class="st1" points="86.6,19.3 81.7,19.3 81.7,17.3 80.4,17.3 80.4,22.6 81.7,22.6 81.7,20.6 86.6,20.6 86.6,22.6 88,22.6    88,17.3 86.6,17.3  "/>
	<path class="st1" d="M166.6,17.8c-0.2-0.1-0.4-0.3-0.6-0.3c-0.2-0.1-0.5-0.1-0.7-0.1h-5.6v1.4h6.1v0.6h-6.1v1.4h6.1v0.6h-6.1v1.4   h5.6c0.2,0,0.5,0,0.7-0.1s0.4-0.2,0.6-0.4c0.2-0.2,0.3-0.3,0.4-0.5c0.1-0.2,0.2-0.5,0.2-0.7V19c0-0.2,0-0.5-0.1-0.7   C166.9,18.1,166.8,17.9,166.6,17.8"/>
	<path class="st1" d="M135.1,21.3h-3.2v-0.7h3.2V21.3z M135.9,19.8c-0.2-0.2-0.3-0.3-0.6-0.4c-0.2-0.1-0.4-0.1-0.7-0.1h-2.9v-2h-1.4   v5.3h4.1c0.2,0,0.5,0,0.7-0.1s0.4-0.2,0.6-0.3c0.2-0.1,0.3-0.3,0.4-0.5c0.1-0.2,0.2-0.4,0.2-0.7c0-0.2,0-0.5-0.1-0.7   C136.2,20.1,136.1,20,135.9,19.8"/>
	<path class="st1" d="M91.6,19.9l0.6-1.1l0.6,1.1H91.6z M93.4,18.1c-0.1-0.2-0.2-0.3-0.3-0.4c-0.1-0.1-0.2-0.2-0.4-0.3   c-0.2-0.1-0.3-0.1-0.5-0.1s-0.3,0-0.5,0.1c-0.1,0.1-0.3,0.2-0.4,0.3c-0.1,0.1-0.2,0.3-0.3,0.4c-0.1,0.2-0.2,0.3-0.3,0.5l-2.1,4h1.5   l0.7-1.4h2.6l0.8,1.4h1.5l-2.1-4C93.6,18.5,93.5,18.3,93.4,18.1"/>
	<path class="st1" d="M154.8,19.9l0.6-1.1l0.6,1.1H154.8z M156.6,18.1c-0.1-0.2-0.2-0.3-0.3-0.4s-0.2-0.2-0.4-0.3   c-0.2-0.1-0.3-0.1-0.5-0.1s-0.3,0-0.5,0.1c-0.1,0.1-0.3,0.2-0.4,0.3c-0.1,0.1-0.2,0.3-0.3,0.4c-0.1,0.2-0.2,0.3-0.3,0.5l-2.1,4h1.5   l0.7-1.4h2.6l0.8,1.4h1.5l-2.1-4C156.8,18.5,156.7,18.3,156.6,18.1"/>
	<rect x="140.9" y="15.2" class="st1" width="4" height="1.2"/>
</g>
</svg>