<svg width="24" height="25" viewBox="0 0 24 25" fill="none" xmlns="http://www.w3.org/2000/svg">
<path d="M12 24.9219C18.6274 24.9219 24 19.5493 24 12.9219C24 6.29446 18.6274 0.921875 12 0.921875C5.37258 0.921875 0 6.29446 0 12.9219C0 19.5493 5.37258 24.9219 12 24.9219Z" fill="#FFAC02"/>
<path fill-rule="evenodd" clip-rule="evenodd" d="M11.3494 7.11144V5.45492C11.3503 5.39424 11.3678 5.33497 11.4 5.28351C11.4322 5.23206 11.4778 5.19037 11.5319 5.16297C11.5861 5.13556 11.6467 5.12347 11.7072 5.12801C11.7677 5.13255 11.8258 5.15354 11.8753 5.18871L15.1085 7.46007C15.1514 7.48989 15.1866 7.52968 15.2108 7.57604C15.2351 7.6224 15.2478 7.67394 15.2478 7.72626C15.2478 7.77858 15.2351 7.83013 15.2108 7.87648C15.1866 7.92284 15.1514 7.96263 15.1085 7.99245L11.8753 10.2638C11.8258 10.299 11.7677 10.32 11.7072 10.3245C11.6467 10.3291 11.5861 10.317 11.5319 10.2896C11.4778 10.2622 11.4322 10.2205 11.4 10.169C11.3678 10.1176 11.3503 10.0583 11.3494 9.99761V8.42399C10.3572 8.55009 9.42243 8.95976 8.65727 9.60387C7.8921 10.248 7.32902 11.0992 7.03556 12.0553C6.7421 13.0115 6.73073 14.032 7.00282 14.9945C7.2749 15.9569 7.81888 16.8204 8.56951 17.4814C9.32013 18.1424 10.2455 18.5728 11.2347 18.721C12.2238 18.8692 13.2347 18.7288 14.146 18.3168C15.0574 17.9047 15.8305 17.2385 16.3727 16.398C16.9149 15.5576 17.203 14.5785 17.2026 13.5783C17.2026 13.4059 17.2711 13.2406 17.393 13.1187C17.5149 12.9968 17.6802 12.9283 17.8526 12.9283C18.025 12.9283 18.1903 12.9968 18.3122 13.1187C18.4341 13.2406 18.5026 13.4059 18.5026 13.5783C18.5027 14.8361 18.1378 16.0668 17.4523 17.1213C16.7668 18.1758 15.79 19.0088 14.6405 19.5192C13.491 20.0296 12.2181 20.1956 10.9762 19.997C9.73423 19.7984 8.57657 19.2437 7.64358 18.4002C6.71059 17.5568 6.04235 16.4607 5.71989 15.245C5.39742 14.0293 5.43459 12.7462 5.82687 11.5512C6.21915 10.3562 6.94971 9.30069 7.92995 8.51264C8.91019 7.72458 10.098 7.23785 11.3494 7.11144V7.11144Z" fill="white"/>
</svg>
